<?xml version="1.0" standalone="no"?>
<!DOCTYPE svg PUBLIC "-//W3C//DTD SVG 20010904//EN"
 "http://www.w3.org/TR/2001/REC-SVG-20010904/DTD/svg10.dtd">
<svg version="1.0" xmlns="http://www.w3.org/2000/svg"
 width="16.000000pt" height="16.000000pt" viewBox="0 0 16.000000 16.000000"
 preserveAspectRatio="xMidYMid meet">
<metadata>
Created by potrace 1.11, written by Peter Selinger 2001-2013
</metadata>
<g transform="translate(0.000000,16.000000) scale(0.003828,-0.003828)"
fill="#000000" stroke="none">
<path d="M2024 3869 c-17 -5 -111 -55 -210 -112 -351 -204 -570 -330 -614
-355 -372 -211 -600 -348 -630 -381 -20 -22 -40 -58 -48 -85 -9 -35 -12 -237
-12 -844 1 -882 0 -869 63 -932 28 -29 180 -123 312 -194 11 -6 27 -16 35 -22
8 -6 40 -25 70 -41 66 -36 61 -33 380 -218 140 -81 339 -196 441 -255 168 -97
248 -132 282 -126 7 2 30 6 51 11 22 4 148 71 280 147 132 77 256 148 275 159
20 11 52 29 71 40 44 27 671 389 724 419 107 59 144 98 163 170 14 52 14 1643
0 1695 -11 41 -47 85 -93 117 -34 23 -194 115 -694 403 -74 43 -147 85 -162
94 -30 18 -311 179 -343 197 -11 6 -55 32 -99 58 -104 62 -169 77 -242 55z
m153 -1140 c21 -12 70 -40 108 -62 39 -23 86 -51 106 -62 20 -11 132 -76 250
-143 245 -142 224 -130 309 -180 37 -21 73 -41 80 -45 8 -4 36 -20 61 -35 25
-15 121 -70 212 -122 l166 -95 0 -345 1 -345 -108 -61 c-59 -34 -208 -120
-332 -191 -124 -72 -315 -182 -425 -245 -110 -64 -216 -125 -235 -136 -33 -20
-112 -65 -193 -111 -21 -12 -49 -28 -62 -37 -23 -15 -34 -9 -317 154 l-293
170 -1 799 -1 798 33 23 c18 12 36 22 39 22 3 0 51 27 106 60 55 33 101 60
103 60 2 0 73 40 157 90 144 83 155 88 176 75 12 -8 39 -24 60 -36z"/>
</g>
</svg>
