<svg width="500" height="500" viewBox="0 0 500 500" fill="none" xmlns="http://www.w3.org/2000/svg">
<circle cx="250" cy="250" r="250" fill="#F8E81C"/>
<path fill-rule="evenodd" clip-rule="evenodd" d="M262.375 63.9765C254.64 59.5107 245.11 59.5107 237.375 63.9765L93.5 147.043C85.765 151.509 81 159.762 81 168.693L81 334.826C81 343.757 85.765 352.011 93.5 356.476L237.375 439.543C245.11 444.009 254.64 444.009 262.375 439.543L406.25 356.476C413.985 352.011 418.75 343.757 418.75 334.826V168.693C418.75 159.762 413.985 151.509 406.25 147.043L262.375 63.9765ZM167.975 385.335V206.91L247.925 158.16L407.825 248.835V342.435L252.8 432.135L167.975 385.335Z" fill="white"/>
<path fill-rule="evenodd" clip-rule="evenodd" d="M237.375 63.9765C245.11 59.5107 254.64 59.5107 262.375 63.9765L406.25 147.043C413.985 151.509 418.75 159.762 418.75 168.693V334.826C418.75 343.757 413.985 352.011 406.25 356.476L262.375 439.543C254.64 444.009 245.11 444.009 237.375 439.543L93.5 356.476C85.765 352.011 81 343.757 81 334.826L81 168.693C81 159.762 85.765 151.509 93.5 147.043L237.375 63.9765ZM249.875 79.1846L399.329 165.472V235.735L191.113 113.111L249.875 79.1846ZM171.212 124.601L100.421 165.472L100.421 233.785L229.785 159.096L171.212 124.601ZM100.421 338.047V256.879L159.793 222.6V372.326L100.421 338.047ZM179.793 383.873L249.875 424.335L399.329 338.047V258.946L249.586 170.758L179.793 211.053V383.873Z" fill="black"/>
</svg>
