<svg width="428" height="401" viewBox="0 0 428 401" fill="none" xmlns="http://www.w3.org/2000/svg">
<path fill-rule="evenodd" clip-rule="evenodd" d="M228.379 9.73762C220.644 5.2718 211.114 5.27181 203.379 9.73763L55.1735 95.3039C47.4385 99.7697 42.6735 108.023 42.6735 116.955L42.6735 288.087C42.6735 297.019 47.4385 305.272 55.1735 309.738L203.379 395.304C211.114 399.77 220.644 399.77 228.379 395.304L376.584 309.738C384.319 305.272 389.084 297.019 389.084 288.087V116.954C389.084 108.023 384.319 99.7697 376.584 95.3039L228.379 9.73762ZM131.879 339.521V156.521L213.879 106.521L377.879 199.521V295.521L218.879 387.521L131.879 339.521Z" fill="white"/>
<path fill-rule="evenodd" clip-rule="evenodd" d="M203.379 9.73762C211.114 5.2718 220.644 5.2718 228.379 9.73762L376.584 95.3039C384.319 99.7697 389.084 108.023 389.084 116.954V288.087C389.084 297.019 384.319 305.272 376.584 309.738L228.379 395.304C220.644 399.77 211.114 399.77 203.379 395.304L55.1735 309.738C47.4385 305.272 42.6735 297.019 42.6735 288.087L42.6735 116.955C42.6735 108.023 47.4385 99.7697 55.1735 95.3039L203.379 9.73762ZM215.879 25.5207L369.165 114.021V186.085L155.61 60.3168L215.879 25.5207ZM135.709 71.8069L62.5921 114.021L62.5921 184.677L196.292 107.486L135.709 71.8069ZM62.5921 291.021V207.771L124 172.318V326.475L62.5921 291.021ZM144 338.022L215.879 379.521L369.165 291.021V209.296L216.093 119.148L144 160.771V338.022Z" fill="black"/>
</svg>
