<?xml version="1.0" encoding="UTF-8"?>
<svg width="314px" height="357px" viewBox="0 0 314 357" version="1.1" xmlns="http://www.w3.org/2000/svg" xmlns:xlink="http://www.w3.org/1999/xlink">
    <!-- Generator: Sketch 43.1 (39012) - http://www.bohemiancoding.com/sketch -->
    <title>Combined Shape</title>
    <desc>Created with Sketch.</desc>
    <defs></defs>
    <g id="Page-1" stroke="none" stroke-width="1" fill="none" fill-rule="evenodd">
        <g id="sixth-logo" fill="#000000">
            <path d="M80.3161082,293.256392 L80.3161082,155.689513 L19.4050575,190.856525 L19.4050575,258.089381 L80.3161082,293.256392 Z M99.3161082,304.226047 L157.536109,337.839381 L295.667161,258.089381 L295.667161,190.927613 L157.474545,111.142069 L99.3161082,144.719858 L99.3161082,304.226047 Z M19.4050575,168.917214 L138.474545,100.172414 L77.5688545,65.0084966 L19.4050575,98.5893805 L19.4050575,168.917214 Z M295.667161,168.988303 L295.667161,98.5893805 L157.536109,18.8393805 L96.5688545,54.0388415 L295.667161,168.988303 Z M148.87541,1.8396378 C153.658582,-0.921928047 161.421569,-0.917348615 166.196809,1.8396378 L306.05902,82.5891232 C310.842193,85.3506891 314.71972,92.0759223 314.71972,97.5898951 L314.71972,259.088866 C314.71972,264.611998 310.834261,271.332651 306.05902,274.089638 L166.196809,354.839123 C161.413637,357.600689 153.65065,357.59611 148.87541,354.839123 L9.01319826,274.089638 C4.23002591,271.328072 0.352498591,264.602839 0.352498591,259.088866 L0.352498591,97.5898951 C0.352498591,92.0667634 4.23795772,85.3461096 9.01319826,82.5891232 L148.87541,1.8396378 Z" id="Combined-Shape"></path>
        </g>
    </g>
</svg>